<svg version="1.1" id="图层_1" xmlns="http://www.w3.org/2000/svg" xmlns:xlink="http://www.w3.org/1999/xlink" x="0px" y="0px"
     width="40" height="40" viewBox="0 0 40 40" style="enable-background:new 0 0 32 32;" xml:space="preserve" >
<style type="text/css">
	.st0{fill:#717071;}
	.st1{fill:#FEB027;}
	.st2{fill:#118D68;}
</style>

    <g>
	<polygon class="st2" points="29.6,10 17.1,17.2 17.1,22.2 23.7,18.2 17.1,26.6 17.1,26.6 17.1,31.7 29.6,24.5 29.6,19.5 23.9,22.7
		29.6,14.8 	"/>
        <g>
		<polygon class="st0" points="2.1,10 2.1,24.4 5.1,26.1 5.1,16.6 11.6,20.2 11.6,29.9 14.7,31.7 14.7,17.2 		"/>
            <polygon class="st0" points="7,20.6 7,27.2 9.4,28.6 9.4,22 		"/>
	</g>
        <polygon class="st1" points="28.5,7.8 15.8,0.5 3.4,7.8 7.2,10 9.8,8.4 17.1,12.3 20.3,10.6 13.1,6.5 15.9,4.9 24.8,9.9 	"/>
</g>
</svg>
